<?xml version="1.0" encoding="UTF-8" standalone="no"?>
<!-- Created with Inkscape (http://www.inkscape.org/) -->

<svg
   xmlns:dc="http://purl.org/dc/elements/1.1/"
   xmlns:cc="http://creativecommons.org/ns#"
   xmlns:rdf="http://www.w3.org/1999/02/22-rdf-syntax-ns#"
   xmlns:svg="http://www.w3.org/2000/svg"
   xmlns="http://www.w3.org/2000/svg"
   xmlns:sodipodi="http://sodipodi.sourceforge.net/DTD/sodipodi-0.dtd"
   xmlns:inkscape="http://www.inkscape.org/namespaces/inkscape"
   width="238"
   height="262"
   viewBox="0 0 238 262"
   id="svg2"
   version="1.1"
   inkscape:version="0.48.5 r10040"
   sodipodi:docname="Dingbat Star Halfcent.svg">
  <defs
     id="defs4" />
  <sodipodi:namedview
     id="base"
     pagecolor="#ffffff"
     bordercolor="#666666"
     borderopacity="1.0"
     inkscape:pageopacity="0.0"
     inkscape:pageshadow="2"
     inkscape:zoom="1.979899"
     inkscape:cx="203.64795"
     inkscape:cy="133.99598"
     inkscape:document-units="px"
     inkscape:current-layer="layer1"
     showgrid="false"
     inkscape:window-width="1239"
     inkscape:window-height="755"
     inkscape:window-x="41"
     inkscape:window-y="1"
     inkscape:window-maximized="1" />
  <metadata
     id="metadata7">
    <rdf:RDF>
      <cc:Work
         rdf:about="">
        <dc:format>image/svg+xml</dc:format>
        <dc:type
           rdf:resource="http://purl.org/dc/dcmitype/StillImage" />
        <dc:title />
      </cc:Work>
    </rdf:RDF>
  </metadata>
  <g
     inkscape:label="Layer 1"
     inkscape:groupmode="layer"
     id="layer1"
     transform="translate(0,-790.3622)">
    <path
       style="font-size:medium;font-style:normal;font-variant:normal;font-weight:normal;font-stretch:normal;text-indent:0;text-align:start;text-decoration:none;line-height:normal;letter-spacing:normal;word-spacing:normal;text-transform:none;direction:ltr;block-progression:tb;writing-mode:lr-tb;text-anchor:start;baseline-shift:baseline;color:#000000;fill:#000000;fill-opacity:1;stroke:none;stroke-width:1px;marker:none;visibility:visible;display:inline;overflow:visible;enable-background:accumulate;font-family:Sans;-inkscape-font-specification:Sans"
       d="m 62.21875,820.6875 -0.875,0.5 114.28125,202.8437 0.875,-0.5 L 62.21875,820.6875 z"
       id="path4136"
       inkscape:connector-curvature="0" />
    <path
       style="font-size:medium;font-style:normal;font-variant:normal;font-weight:normal;font-stretch:normal;text-indent:0;text-align:start;text-decoration:none;line-height:normal;letter-spacing:normal;word-spacing:normal;text-transform:none;direction:ltr;block-progression:tb;writing-mode:lr-tb;text-anchor:start;baseline-shift:baseline;color:#000000;fill:#000000;fill-opacity:1;stroke:none;stroke-width:1px;marker:none;visibility:visible;display:inline;overflow:visible;enable-background:accumulate;font-family:Sans;-inkscape-font-specification:Sans"
       d="m 175.625,820.6875 -114.28125,202.8437 0.875,0.5 L 176.5,821.1875 l -0.875,-0.5 z"
       id="path4138"
       inkscape:connector-curvature="0" />
    <path
       style="font-size:medium;font-style:normal;font-variant:normal;font-weight:normal;font-stretch:normal;text-indent:0;text-align:start;text-decoration:none;line-height:normal;letter-spacing:normal;word-spacing:normal;text-transform:none;direction:ltr;block-progression:tb;writing-mode:lr-tb;text-anchor:start;baseline-shift:baseline;color:#000000;fill:#000000;fill-opacity:1;stroke:none;stroke-width:1px;marker:none;visibility:visible;display:inline;overflow:visible;enable-background:accumulate;font-family:Sans;-inkscape-font-specification:Sans"
       d="m 220.1875,865.15625 -202.875,114.3125 0.5,0.84375 202.84375,-114.28125 -0.46875,-0.875 z"
       id="path4146"
       inkscape:connector-curvature="0" />
    <path
       style="font-size:medium;font-style:normal;font-variant:normal;font-weight:normal;font-stretch:normal;text-indent:0;text-align:start;text-decoration:none;line-height:normal;letter-spacing:normal;word-spacing:normal;text-transform:none;direction:ltr;block-progression:tb;writing-mode:lr-tb;text-anchor:start;baseline-shift:baseline;color:#000000;fill:#000000;fill-opacity:1;stroke:none;stroke-width:1px;marker:none;visibility:visible;display:inline;overflow:visible;enable-background:accumulate;font-family:Sans;-inkscape-font-specification:Sans"
       d="m 17.8125,865.15625 -0.5,0.875 202.875,114.28125 0.46875,-0.84375 L 17.8125,865.15625 z"
       id="path4148"
       inkscape:connector-curvature="0" />
    <path
       style="font-size:medium;font-style:normal;font-variant:normal;font-weight:normal;font-stretch:normal;text-indent:0;text-align:start;text-decoration:none;line-height:normal;letter-spacing:normal;word-spacing:normal;text-transform:none;direction:ltr;block-progression:tb;writing-mode:lr-tb;text-anchor:start;baseline-shift:baseline;color:#000000;fill:#000000;fill-opacity:1;stroke:none;stroke-width:1px;marker:none;visibility:visible;display:inline;overflow:visible;enable-background:accumulate;font-family:Sans;-inkscape-font-specification:Sans"
       d="m 7.5,922.21875 0,1 230,0 0,-1 -230,0 z"
       id="path4158"
       inkscape:connector-curvature="0" />
    <path
       style="font-size:medium;font-style:normal;font-variant:normal;font-weight:normal;font-stretch:normal;text-indent:0;text-align:start;text-decoration:none;line-height:normal;letter-spacing:normal;word-spacing:normal;text-transform:none;direction:ltr;block-progression:tb;writing-mode:lr-tb;text-anchor:start;baseline-shift:baseline;color:#000000;fill:#000000;fill-opacity:1;stroke:none;stroke-width:1px;marker:none;visibility:visible;display:inline;overflow:visible;enable-background:accumulate;font-family:Sans;-inkscape-font-specification:Sans"
       d="m 118.78125,806.28125 0,229.28125 1,0 0,-229.28125 -1,0 z"
       id="path4160"
       inkscape:connector-curvature="0" />
    <ellipse
       d="m 286.07143,391.11221 c 0,6.21321 -4.95685,11.25 -11.07143,11.25 -6.11458,0 -11.07143,-5.03679 -11.07143,-11.25 0,-6.2132 4.95685,-11.25 11.07143,-11.25 6.11458,0 11.07143,5.0368 11.07143,11.25 z"
       sodipodi:ry="11.25"
       sodipodi:rx="11.071428"
       sodipodi:cy="391.11221"
       sodipodi:cx="275"
       style="fill:#000000;fill-opacity:1;stroke:none"
       id="path4162"
       cx="275"
       cy="391.11221"
       rx="11.071428"
       ry="11.25"
       transform="translate(-263.92858,471.42861)" />
    <ellipse
       d="m 393.57143,330.75507 c 0,6.2132 -4.95685,11.25 -11.07143,11.25 -6.11458,0 -11.07143,-5.0368 -11.07143,-11.25 0,-6.21321 4.95685,-11.25 11.07143,-11.25 6.11458,0 11.07143,5.03679 11.07143,11.25 z"
       sodipodi:ry="11.25"
       sodipodi:rx="11.071428"
       sodipodi:cy="330.75507"
       sodipodi:cx="382.5"
       ry="11.25"
       rx="11.071428"
       cy="330.75507"
       cx="382.5"
       id="ellipse4164"
       style="fill:#000000;fill-opacity:1;stroke:none"
       transform="translate(-263.92858,471.42861)" />
    <ellipse
       d="m 499.99999,390.04077 c 0,6.2132 -4.95685,11.25 -11.07143,11.25 -6.11458,0 -11.07143,-5.0368 -11.07143,-11.25 0,-6.2132 4.95685,-11.25 11.07143,-11.25 6.11458,0 11.07143,5.0368 11.07143,11.25 z"
       sodipodi:ry="11.25"
       sodipodi:rx="11.071428"
       sodipodi:cy="390.04077"
       sodipodi:cx="488.92856"
       style="fill:#000000;fill-opacity:1;stroke:none"
       id="ellipse4166"
       cx="488.92856"
       cy="390.04077"
       rx="11.071428"
       ry="11.25"
       transform="translate(-263.92858,471.42861)" />
    <ellipse
       d="m 498.21428,511.46933 c 0,6.2132 -4.95685,11.25 -11.07143,11.25 -6.11458,0 -11.07143,-5.0368 -11.07143,-11.25 0,-6.2132 4.95685,-11.25 11.07143,-11.25 6.11458,0 11.07143,5.0368 11.07143,11.25 z"
       sodipodi:ry="11.25"
       sodipodi:rx="11.071428"
       sodipodi:cy="511.46933"
       sodipodi:cx="487.14285"
       ry="11.25"
       rx="11.071428"
       cy="511.46933"
       cx="487.14285"
       id="ellipse4168"
       style="fill:#000000;fill-opacity:1;stroke:none"
       transform="translate(-263.92858,471.42861)" />
    <ellipse
       d="m 394.64284,569.68359 c 0,6.21321 -4.95685,11.25 -11.07143,11.25 -6.11458,0 -11.07143,-5.03679 -11.07143,-11.25 0,-6.2132 4.95685,-11.25 11.07143,-11.25 6.11458,0 11.07143,5.0368 11.07143,11.25 z"
       sodipodi:ry="11.25"
       sodipodi:rx="11.071428"
       sodipodi:cy="569.68359"
       sodipodi:cx="383.57141"
       style="fill:#000000;fill-opacity:1;stroke:none"
       id="ellipse4170"
       cx="383.57141"
       cy="569.68359"
       rx="11.071428"
       ry="11.25"
       transform="translate(-263.92858,471.42861)" />
    <ellipse
       d="m 288.5714,511.82645 c 0,6.2132 -4.95685,11.25 -11.07143,11.25 -6.11458,0 -11.07143,-5.0368 -11.07143,-11.25 0,-6.21321 4.95685,-11.25 11.07143,-11.25 6.11458,0 11.07143,5.03679 11.07143,11.25 z"
       sodipodi:ry="11.25"
       sodipodi:rx="11.071428"
       sodipodi:cy="511.82645"
       sodipodi:cx="277.49997"
       ry="11.25"
       rx="11.071428"
       cy="511.82645"
       cx="277.49997"
       id="ellipse4172"
       style="fill:#000000;fill-opacity:1;stroke:none"
       transform="translate(-263.92858,471.42861)" />
    <ellipse
       d="m 416.78569,446.82648 c 0,19.0341 -15.03044,34.46428 -33.57143,34.46428 -18.54099,0 -33.57143,-15.43018 -33.57143,-34.46428 0,-19.0341 15.03044,-34.46429 33.57143,-34.46429 18.54099,0 33.57143,15.43019 33.57143,34.46429 z"
       sodipodi:ry="34.464287"
       sodipodi:rx="33.57143"
       sodipodi:cy="446.82648"
       sodipodi:cx="383.21426"
       ry="34.464287"
       rx="33.57143"
       cy="446.82648"
       cx="383.21426"
       id="ellipse4186"
       style="fill:#000000;fill-opacity:1;stroke:none"
       transform="translate(-263.92858,471.42861)" />
  </g>
</svg>
