<?xml version="1.0" encoding="UTF-8" standalone="no"?>
<!-- Created with Inkscape (http://www.inkscape.org/) -->

<svg
   xmlns:dc="http://purl.org/dc/elements/1.1/"
   xmlns:cc="http://creativecommons.org/ns#"
   xmlns:rdf="http://www.w3.org/1999/02/22-rdf-syntax-ns#"
   xmlns:svg="http://www.w3.org/2000/svg"
   xmlns="http://www.w3.org/2000/svg"
   xmlns:sodipodi="http://sodipodi.sourceforge.net/DTD/sodipodi-0.dtd"
   xmlns:inkscape="http://www.inkscape.org/namespaces/inkscape"
   width="262"
   height="262"
   viewBox="0 0 262 262"
   id="svg2"
   version="1.1"
   inkscape:version="0.48.5 r10040"
   sodipodi:docname="Dingbat Star Fullcent.svg">
  <defs
     id="defs4" />
  <sodipodi:namedview
     id="base"
     pagecolor="#ffffff"
     bordercolor="#666666"
     borderopacity="1.0"
     inkscape:pageopacity="0.0"
     inkscape:pageshadow="2"
     inkscape:zoom="1.8101934"
     inkscape:cx="77.294194"
     inkscape:cy="183.27948"
     inkscape:document-units="px"
     inkscape:current-layer="layer1"
     showgrid="false"
     inkscape:window-width="1239"
     inkscape:window-height="755"
     inkscape:window-x="41"
     inkscape:window-y="1"
     inkscape:window-maximized="1" />
  <metadata
     id="metadata7">
    <rdf:RDF>
      <cc:Work
         rdf:about="">
        <dc:format>image/svg+xml</dc:format>
        <dc:type
           rdf:resource="http://purl.org/dc/dcmitype/StillImage" />
        <dc:title />
      </cc:Work>
    </rdf:RDF>
  </metadata>
  <g
     inkscape:label="Layer 1"
     inkscape:groupmode="layer"
     id="layer1"
     transform="translate(0,-790.3622)">
    <path
       style="font-size:medium;font-style:normal;font-variant:normal;font-weight:normal;font-stretch:normal;text-indent:0;text-align:start;text-decoration:none;line-height:normal;letter-spacing:normal;word-spacing:normal;text-transform:none;direction:ltr;block-progression:tb;writing-mode:lr-tb;text-anchor:start;baseline-shift:baseline;color:#000000;fill:#000000;fill-opacity:1;stroke:none;stroke-width:1px;marker:none;visibility:visible;display:inline;overflow:visible;enable-background:accumulate;font-family:Sans;-inkscape-font-specification:Sans"
       d="m 72.9375,820.6875 -0.875,0.5 114.28125,202.8437 0.875,-0.5 L 72.9375,820.6875 z"
       id="path4136"
       inkscape:connector-curvature="0" />
    <path
       style="font-size:medium;font-style:normal;font-variant:normal;font-weight:normal;font-stretch:normal;text-indent:0;text-align:start;text-decoration:none;line-height:normal;letter-spacing:normal;word-spacing:normal;text-transform:none;direction:ltr;block-progression:tb;writing-mode:lr-tb;text-anchor:start;baseline-shift:baseline;color:#000000;fill:#000000;fill-opacity:1;stroke:none;stroke-width:1px;marker:none;visibility:visible;display:inline;overflow:visible;enable-background:accumulate;font-family:Sans;-inkscape-font-specification:Sans"
       d="m 186.34375,820.6875 -114.28125,202.8437 0.875,0.5 114.28125,-202.8437 -0.875,-0.5 z"
       id="path4138"
       inkscape:connector-curvature="0" />
    <path
       style="font-size:medium;font-style:normal;font-variant:normal;font-weight:normal;font-stretch:normal;text-indent:0;text-align:start;text-decoration:none;line-height:normal;letter-spacing:normal;word-spacing:normal;text-transform:none;direction:ltr;block-progression:tb;writing-mode:lr-tb;text-anchor:start;baseline-shift:baseline;color:#000000;fill:#000000;fill-opacity:1;stroke:none;stroke-width:1px;marker:none;visibility:visible;display:inline;overflow:visible;enable-background:accumulate;font-family:Sans;-inkscape-font-specification:Sans"
       d="m 230.90625,865.15625 -202.875,114.3125 0.5,0.84375 202.84375,-114.28125 -0.46875,-0.875 z"
       id="path4146"
       inkscape:connector-curvature="0" />
    <path
       style="font-size:medium;font-style:normal;font-variant:normal;font-weight:normal;font-stretch:normal;text-indent:0;text-align:start;text-decoration:none;line-height:normal;letter-spacing:normal;word-spacing:normal;text-transform:none;direction:ltr;block-progression:tb;writing-mode:lr-tb;text-anchor:start;baseline-shift:baseline;color:#000000;fill:#000000;fill-opacity:1;stroke:none;stroke-width:1px;marker:none;visibility:visible;display:inline;overflow:visible;enable-background:accumulate;font-family:Sans;-inkscape-font-specification:Sans"
       d="m 28.53125,865.15625 -0.5,0.875 202.875,114.28125 0.46875,-0.84375 -202.84375,-114.3125 z"
       id="path4148"
       inkscape:connector-curvature="0" />
    <path
       style="font-size:medium;font-style:normal;font-variant:normal;font-weight:normal;font-stretch:normal;text-indent:0;text-align:start;text-decoration:none;line-height:normal;letter-spacing:normal;word-spacing:normal;text-transform:none;direction:ltr;block-progression:tb;writing-mode:lr-tb;text-anchor:start;baseline-shift:baseline;color:#000000;fill:#000000;fill-opacity:1;stroke:none;stroke-width:1px;marker:none;visibility:visible;display:inline;overflow:visible;enable-background:accumulate;font-family:Sans;-inkscape-font-specification:Sans"
       d="m 18.21875,922.21875 0,1 230,0 0,-1 -230,0 z"
       id="path4158"
       inkscape:connector-curvature="0" />
    <path
       style="font-size:medium;font-style:normal;font-variant:normal;font-weight:normal;font-stretch:normal;text-indent:0;text-align:start;text-decoration:none;line-height:normal;letter-spacing:normal;word-spacing:normal;text-transform:none;direction:ltr;block-progression:tb;writing-mode:lr-tb;text-anchor:start;baseline-shift:baseline;color:#000000;fill:#000000;fill-opacity:1;stroke:none;stroke-width:1px;marker:none;visibility:visible;display:inline;overflow:visible;enable-background:accumulate;font-family:Sans;-inkscape-font-specification:Sans"
       d="m 129.5,806.28125 0,229.28125 1,0 0,-229.28125 -1,0 z"
       id="path4160"
       inkscape:connector-curvature="0" />
    <path
       inkscape:connector-curvature="0"
       id="path4162"
       d="m 32.85718,862.54082 c 0,6.21321 -4.95685,11.25 -11.07143,11.25 -6.11458,0 -11.07143,-5.03679 -11.07143,-11.25 0,-6.2132 4.95685,-11.25 11.07143,-11.25 6.11458,0 11.07143,5.0368 11.07143,11.25 z"
       style="fill:#000000;fill-opacity:1;stroke:none" />
    <path
       inkscape:connector-curvature="0"
       id="ellipse4164"
       d="m 140.35718,802.18368 c 0,6.2132 -4.95685,11.25 -11.07143,11.25 -6.11458,0 -11.07143,-5.0368 -11.07143,-11.25 0,-6.21321 4.95685,-11.25 11.07143,-11.25 6.11458,0 11.07143,5.03679 11.07143,11.25 z"
       style="fill:#000000;fill-opacity:1;stroke:none" />
    <path
       inkscape:connector-curvature="0"
       id="ellipse4166"
       d="m 246.78574,861.46938 c 0,6.2132 -4.95685,11.25 -11.07143,11.25 -6.11458,0 -11.07143,-5.0368 -11.07143,-11.25 0,-6.2132 4.95685,-11.25 11.07143,-11.25 6.11458,0 11.07143,5.0368 11.07143,11.25 z"
       style="fill:#000000;fill-opacity:1;stroke:none" />
    <path
       inkscape:connector-curvature="0"
       id="ellipse4168"
       d="m 245.00003,982.89794 c 0,6.2132 -4.95685,11.25 -11.07143,11.25 -6.11458,0 -11.07143,-5.0368 -11.07143,-11.25 0,-6.2132 4.95685,-11.25 11.07143,-11.25 6.11458,0 11.07143,5.0368 11.07143,11.25 z"
       style="fill:#000000;fill-opacity:1;stroke:none" />
    <path
       inkscape:connector-curvature="0"
       id="ellipse4170"
       d="m 141.42859,1041.1122 c 0,6.2132 -4.95685,11.25 -11.07143,11.25 -6.11458,0 -11.07143,-5.0368 -11.07143,-11.25 0,-6.2132 4.95685,-11.25 11.07143,-11.25 6.11458,0 11.07143,5.0368 11.07143,11.25 z"
       style="fill:#000000;fill-opacity:1;stroke:none" />
    <path
       inkscape:connector-curvature="0"
       id="ellipse4172"
       d="m 35.35715,983.25506 c 0,6.2132 -4.95685,11.25 -11.07143,11.25 -6.11458,0 -11.07143,-5.0368 -11.07143,-11.25 0,-6.21321 4.95685,-11.25 11.07143,-11.25 6.11458,0 11.07143,5.03679 11.07143,11.25 z"
       style="fill:#000000;fill-opacity:1;stroke:none" />
    <path
       inkscape:connector-curvature="0"
       id="ellipse4174"
       d="m 22.14285,922.89791 c 0,6.2132 -4.95684,11.25 -11.07142,11.25 -6.11459,0 -11.07143,-5.0368 -11.07143,-11.25 0,-6.2132 4.95684,-11.25 11.07143,-11.25 6.11458,0 11.07142,5.0368 11.07142,11.25 z"
       style="fill:#000000;fill-opacity:1;stroke:none" />
    <path
       inkscape:connector-curvature="0"
       id="ellipse4176"
       d="m 79.64285,816.1122 c 0,6.21321 -4.95684,11.25 -11.07142,11.25 -6.11459,0 -11.07143,-5.03679 -11.07143,-11.25 0,-6.2132 4.95684,-11.25 11.07143,-11.25 6.11458,0 11.07142,5.0368 11.07142,11.25 z"
       style="fill:#000000;fill-opacity:1;stroke:none" />
    <path
       inkscape:connector-curvature="0"
       id="ellipse4178"
       d="m 201.42856,816.1122 c 0,6.21321 -4.95685,11.25 -11.07143,11.25 -6.11458,0 -11.07143,-5.03679 -11.07143,-11.25 0,-6.2132 4.95685,-11.25 11.07143,-11.25 6.11458,0 11.07143,5.0368 11.07143,11.25 z"
       style="fill:#000000;fill-opacity:1;stroke:none" />
    <path
       inkscape:connector-curvature="0"
       id="ellipse4180"
       d="m 261.42856,922.89791 c 0,6.2132 -4.95685,11.25 -11.07143,11.25 -6.11458,0 -11.07143,-5.0368 -11.07143,-11.25 0,-6.2132 4.95685,-11.25 11.07143,-11.25 6.11458,0 11.07143,5.0368 11.07143,11.25 z"
       style="fill:#000000;fill-opacity:1;stroke:none" />
    <path
       inkscape:connector-curvature="0"
       id="ellipse4182"
       d="m 199.64282,1026.4694 c 0,6.2132 -4.95684,11.25 -11.07143,11.25 -6.11458,0 -11.07142,-5.0368 -11.07142,-11.25 0,-6.2132 4.95684,-11.25 11.07142,-11.25 6.11459,0 11.07143,5.0368 11.07143,11.25 z"
       style="fill:#000000;fill-opacity:1;stroke:none" />
    <path
       inkscape:connector-curvature="0"
       id="ellipse4184"
       d="m 82.14282,1027.5408 c 0,6.2132 -4.95684,11.25 -11.07143,11.25 -6.11458,0 -11.07142,-5.0368 -11.07142,-11.25 0,-6.2132 4.95684,-11.25 11.07142,-11.25 6.11459,0 11.07143,5.0368 11.07143,11.25 z"
       style="fill:#000000;fill-opacity:1;stroke:none" />
    <path
       inkscape:connector-curvature="0"
       id="ellipse4186"
       d="m 163.57144,918.25509 c 0,19.0341 -15.03044,34.46428 -33.57143,34.46428 -18.54099,0 -33.57143,-15.43018 -33.57143,-34.46428 0,-19.0341 15.03044,-34.46429 33.57143,-34.46429 18.54099,0 33.57143,15.43019 33.57143,34.46429 z"
       style="fill:#000000;fill-opacity:1;stroke:none" />
  </g>
</svg>
