<?xml version="1.0" encoding="UTF-8" standalone="no"?>
<!-- Created with Inkscape (http://www.inkscape.org/) -->

<svg
   xmlns:dc="http://purl.org/dc/elements/1.1/"
   xmlns:cc="http://creativecommons.org/ns#"
   xmlns:rdf="http://www.w3.org/1999/02/22-rdf-syntax-ns#"
   xmlns:svg="http://www.w3.org/2000/svg"
   xmlns="http://www.w3.org/2000/svg"
   xmlns:sodipodi="http://sodipodi.sourceforge.net/DTD/sodipodi-0.dtd"
   xmlns:inkscape="http://www.inkscape.org/namespaces/inkscape"
   width="262"
   height="262"
   viewBox="0 0 262 262"
   id="svg2"
   version="1.1"
   inkscape:version="0.48.5 r10040"
   sodipodi:docname="Dingbat Star Fullcent.svg">
  <defs
     id="defs4" />
  <sodipodi:namedview
     id="base"
     pagecolor="#ffffff"
     bordercolor="#666666"
     borderopacity="1.0"
     inkscape:pageopacity="0.0"
     inkscape:pageshadow="2"
     inkscape:zoom="1.28"
     inkscape:cx="-2.0595967"
     inkscape:cy="199.96774"
     inkscape:document-units="px"
     inkscape:current-layer="layer1"
     showgrid="false"
     inkscape:window-width="1556"
     inkscape:window-height="855"
     inkscape:window-x="44"
     inkscape:window-y="1"
     inkscape:window-maximized="1" />
  <metadata
     id="metadata7">
    <rdf:RDF>
      <cc:Work
         rdf:about="">
        <dc:format>image/svg+xml</dc:format>
        <dc:type
           rdf:resource="http://purl.org/dc/dcmitype/StillImage" />
        <dc:title />
      </cc:Work>
    </rdf:RDF>
  </metadata>
  <g
     inkscape:label="Layer 1"
     inkscape:groupmode="layer"
     id="layer1"
     transform="translate(0,-790.3622)">
    <g
       id="g3137"
       transform="translate(-253.21425,471.42861)">
      <g
         id="g4140">
        <path
           style="fill:none;stroke:#000000;stroke-width:1px;stroke-linecap:butt;stroke-linejoin:miter;stroke-opacity:1"
           d="M 325.71429,349.50506 440,552.36221"
           id="path4136"
           inkscape:connector-curvature="0" />
        <path
           inkscape:connector-curvature="0"
           id="path4138"
           d="M 440,349.50506 325.71429,552.36221"
           style="fill:none;stroke:#000000;stroke-width:1px;stroke-linecap:butt;stroke-linejoin:miter;stroke-opacity:1" />
      </g>
      <g
         transform="matrix(0,1,-1,0,833.85713,68.461733)"
         id="g4144">
        <path
           inkscape:connector-curvature="0"
           id="path4146"
           d="M 325.71429,349.50506 440,552.36221"
           style="fill:none;stroke:#000000;stroke-width:1px;stroke-linecap:butt;stroke-linejoin:miter;stroke-opacity:1" />
        <path
           style="fill:none;stroke:#000000;stroke-width:1px;stroke-linecap:butt;stroke-linejoin:miter;stroke-opacity:1"
           d="M 440,349.50506 325.71429,552.36221"
           id="path4148"
           inkscape:connector-curvature="0" />
      </g>
      <path
         inkscape:connector-curvature="0"
         id="path4158"
         d="m 271.42857,451.29077 230,0"
         style="fill:none;stroke:#000000;stroke-width:1px;stroke-linecap:butt;stroke-linejoin:miter;stroke-opacity:1" />
      <path
         sodipodi:nodetypes="cc"
         inkscape:connector-curvature="0"
         id="path4160"
         d="m 383.21429,334.8622 0,229.28572"
         style="fill:none;stroke:#000000;stroke-width:1px;stroke-linecap:butt;stroke-linejoin:miter;stroke-opacity:1" />
      <ellipse
         ry="11.25"
         rx="11.071428"
         cy="391.11221"
         cx="275"
         id="path4162"
         style="fill:#000000;fill-opacity:1;stroke:none"
         sodipodi:cx="275"
         sodipodi:cy="391.11221"
         sodipodi:rx="11.071428"
         sodipodi:ry="11.25"
         d="m 286.07143,391.11221 c 0,6.21321 -4.95685,11.25 -11.07143,11.25 -6.11458,0 -11.07143,-5.03679 -11.07143,-11.25 0,-6.2132 4.95685,-11.25 11.07143,-11.25 6.11458,0 11.07143,5.0368 11.07143,11.25 z" />
      <ellipse
         style="fill:#000000;fill-opacity:1;stroke:none"
         id="ellipse4164"
         cx="382.5"
         cy="330.75507"
         rx="11.071428"
         ry="11.25"
         sodipodi:cx="382.5"
         sodipodi:cy="330.75507"
         sodipodi:rx="11.071428"
         sodipodi:ry="11.25"
         d="m 393.57143,330.75507 c 0,6.2132 -4.95685,11.25 -11.07143,11.25 -6.11458,0 -11.07143,-5.0368 -11.07143,-11.25 0,-6.21321 4.95685,-11.25 11.07143,-11.25 6.11458,0 11.07143,5.03679 11.07143,11.25 z" />
      <ellipse
         ry="11.25"
         rx="11.071428"
         cy="390.04077"
         cx="488.92856"
         id="ellipse4166"
         style="fill:#000000;fill-opacity:1;stroke:none"
         sodipodi:cx="488.92856"
         sodipodi:cy="390.04077"
         sodipodi:rx="11.071428"
         sodipodi:ry="11.25"
         d="m 499.99999,390.04077 c 0,6.2132 -4.95685,11.25 -11.07143,11.25 -6.11458,0 -11.07143,-5.0368 -11.07143,-11.25 0,-6.2132 4.95685,-11.25 11.07143,-11.25 6.11458,0 11.07143,5.0368 11.07143,11.25 z" />
      <ellipse
         style="fill:#000000;fill-opacity:1;stroke:none"
         id="ellipse4168"
         cx="487.14285"
         cy="511.46933"
         rx="11.071428"
         ry="11.25"
         sodipodi:cx="487.14285"
         sodipodi:cy="511.46933"
         sodipodi:rx="11.071428"
         sodipodi:ry="11.25"
         d="m 498.21428,511.46933 c 0,6.2132 -4.95685,11.25 -11.07143,11.25 -6.11458,0 -11.07143,-5.0368 -11.07143,-11.25 0,-6.2132 4.95685,-11.25 11.07143,-11.25 6.11458,0 11.07143,5.0368 11.07143,11.25 z" />
      <ellipse
         ry="11.25"
         rx="11.071428"
         cy="569.68359"
         cx="383.57141"
         id="ellipse4170"
         style="fill:#000000;fill-opacity:1;stroke:none"
         sodipodi:cx="383.57141"
         sodipodi:cy="569.68359"
         sodipodi:rx="11.071428"
         sodipodi:ry="11.25"
         d="m 394.64284,569.68359 c 0,6.21321 -4.95685,11.25 -11.07143,11.25 -6.11458,0 -11.07143,-5.03679 -11.07143,-11.25 0,-6.2132 4.95685,-11.25 11.07143,-11.25 6.11458,0 11.07143,5.0368 11.07143,11.25 z" />
      <ellipse
         style="fill:#000000;fill-opacity:1;stroke:none"
         id="ellipse4172"
         cx="277.49997"
         cy="511.82645"
         rx="11.071428"
         ry="11.25"
         sodipodi:cx="277.49997"
         sodipodi:cy="511.82645"
         sodipodi:rx="11.071428"
         sodipodi:ry="11.25"
         d="m 288.5714,511.82645 c 0,6.2132 -4.95685,11.25 -11.07143,11.25 -6.11458,0 -11.07143,-5.0368 -11.07143,-11.25 0,-6.21321 4.95685,-11.25 11.07143,-11.25 6.11458,0 11.07143,5.03679 11.07143,11.25 z" />
      <ellipse
         ry="11.25"
         rx="11.071428"
         cy="451.4693"
         cx="264.28568"
         id="ellipse4174"
         style="fill:#000000;fill-opacity:1;stroke:none"
         sodipodi:cx="264.28568"
         sodipodi:cy="451.4693"
         sodipodi:rx="11.071428"
         sodipodi:ry="11.25"
         d="m 275.3571,451.4693 c 0,6.2132 -4.95684,11.25 -11.07142,11.25 -6.11459,0 -11.07143,-5.0368 -11.07143,-11.25 0,-6.2132 4.95684,-11.25 11.07143,-11.25 6.11458,0 11.07142,5.0368 11.07142,11.25 z" />
      <ellipse
         style="fill:#000000;fill-opacity:1;stroke:none"
         id="ellipse4176"
         cx="321.78568"
         cy="344.68359"
         rx="11.071428"
         ry="11.25"
         sodipodi:cx="321.78568"
         sodipodi:cy="344.68359"
         sodipodi:rx="11.071428"
         sodipodi:ry="11.25"
         d="m 332.8571,344.68359 c 0,6.21321 -4.95684,11.25 -11.07142,11.25 -6.11459,0 -11.07143,-5.03679 -11.07143,-11.25 0,-6.2132 4.95684,-11.25 11.07143,-11.25 6.11458,0 11.07142,5.0368 11.07142,11.25 z" />
      <ellipse
         ry="11.25"
         rx="11.071428"
         cy="344.68359"
         cx="443.57138"
         id="ellipse4178"
         style="fill:#000000;fill-opacity:1;stroke:none"
         sodipodi:cx="443.57138"
         sodipodi:cy="344.68359"
         sodipodi:rx="11.071428"
         sodipodi:ry="11.25"
         d="m 454.64281,344.68359 c 0,6.21321 -4.95685,11.25 -11.07143,11.25 -6.11458,0 -11.07143,-5.03679 -11.07143,-11.25 0,-6.2132 4.95685,-11.25 11.07143,-11.25 6.11458,0 11.07143,5.0368 11.07143,11.25 z" />
      <ellipse
         style="fill:#000000;fill-opacity:1;stroke:none"
         id="ellipse4180"
         cx="503.57138"
         cy="451.4693"
         rx="11.071428"
         ry="11.25"
         sodipodi:cx="503.57138"
         sodipodi:cy="451.4693"
         sodipodi:rx="11.071428"
         sodipodi:ry="11.25"
         d="m 514.64281,451.4693 c 0,6.2132 -4.95685,11.25 -11.07143,11.25 -6.11458,0 -11.07143,-5.0368 -11.07143,-11.25 0,-6.2132 4.95685,-11.25 11.07143,-11.25 6.11458,0 11.07143,5.0368 11.07143,11.25 z" />
      <ellipse
         ry="11.25"
         rx="11.071428"
         cy="555.04077"
         cx="441.78564"
         id="ellipse4182"
         style="fill:#000000;fill-opacity:1;stroke:none"
         sodipodi:cx="441.78564"
         sodipodi:cy="555.04077"
         sodipodi:rx="11.071428"
         sodipodi:ry="11.25"
         d="m 452.85707,555.04077 c 0,6.2132 -4.95684,11.25 -11.07143,11.25 -6.11458,0 -11.07142,-5.0368 -11.07142,-11.25 0,-6.2132 4.95684,-11.25 11.07142,-11.25 6.11459,0 11.07143,5.0368 11.07143,11.25 z" />
      <ellipse
         style="fill:#000000;fill-opacity:1;stroke:none"
         id="ellipse4184"
         cx="324.28564"
         cy="556.11218"
         rx="11.071428"
         ry="11.25"
         sodipodi:cx="324.28564"
         sodipodi:cy="556.11218"
         sodipodi:rx="11.071428"
         sodipodi:ry="11.25"
         d="m 335.35707,556.11218 c 0,6.21321 -4.95684,11.25 -11.07143,11.25 -6.11458,0 -11.07142,-5.03679 -11.07142,-11.25 0,-6.2132 4.95684,-11.25 11.07142,-11.25 6.11459,0 11.07143,5.0368 11.07143,11.25 z" />
      <ellipse
         style="fill:#000000;fill-opacity:1;stroke:none"
         id="ellipse4186"
         cx="383.21426"
         cy="446.82648"
         rx="33.57143"
         ry="34.464287"
         sodipodi:cx="383.21426"
         sodipodi:cy="446.82648"
         sodipodi:rx="33.57143"
         sodipodi:ry="34.464287"
         d="m 416.78569,446.82648 c 0,19.0341 -15.03044,34.46428 -33.57143,34.46428 -18.54099,0 -33.57143,-15.43018 -33.57143,-34.46428 0,-19.0341 15.03044,-34.46429 33.57143,-34.46429 18.54099,0 33.57143,15.43019 33.57143,34.46429 z" />
    </g>
  </g>
</svg>
